<svg xmlns="http://www.w3.org/2000/svg" xmlns:xlink="http://www.w3.org/1999/xlink" width="415" height="736.5" viewBox="0 0 415 736.5">
  <defs>
    <linearGradient id="linear-gradient" x1="1" x2="0.291" y2="0.851" gradientUnits="objectBoundingBox">
      <stop offset="0" stop-color="#fff" stop-opacity="0"/>
      <stop offset="1" stop-color="#182081" stop-opacity="0.302"/>
    </linearGradient>
  </defs>
  <g id="Group_30" data-name="Group 30" transform="translate(0.5 0.5)">
    <path id="Rectangle_62" data-name="Rectangle 62" d="M0,0H414a0,0,0,0,1,0,0V736a0,0,0,0,1,0,0H50A50,50,0,0,1,0,686V0A0,0,0,0,1,0,0Z" fill="#3838f8"/>
    <g id="Group_29" data-name="Group 29">
      <g id="Group_28" data-name="Group 28">
        <path id="Intersection_9" data-name="Intersection 9" d="M-928.114,369.193c8.113,18.846,15.112,48.64,4.935,86.62-18.151,67.741,43.214,137.678,43.214,137.678s40.4,27.7,4.613,74.724c-22.934,30.135-40.944,37.479-52.762,66.977Z" transform="translate(928.115 -185)" fill="#fff" opacity="0.05"/>
        <path id="Intersection_10" data-name="Intersection 10" d="M-928.114,369.194c8.713,20.339,16.23,52.493,5.3,93.483C-942.309,535.785-876.4,611.264-876.4,611.264s43.389,29.9,4.955,80.645c-24.632,32.523-43.975,40.448-56.668,72.283Z" transform="translate(928.115 -214)" fill="none" stroke="#fff" stroke-width="1" opacity="0.1"/>
      </g>
      <path id="Intersection_6" data-name="Intersection 6" d="M0,54A54,54,0,0,1,54,0V54Z" transform="translate(360 682)" fill="#fff" opacity="0.05"/>
      <g id="Group_27" data-name="Group 27">
        <path id="Intersection_8" data-name="Intersection 8" d="M-657.383,491.06c-31.31-65.91-7.406-90.958,9.66-157.559s-54.615-114.657-54.615-114.657H-586V641.056C-597.136,565.125-631.5,545.545-657.383,491.06Z" transform="translate(1000 -218.843)" fill="none" stroke="#fff" stroke-width="1" opacity="0.15"/>
        <path id="Intersection_7" data-name="Intersection 7" d="M-662.437,523.115c-66.938-38.647-26.855-74.874-26.855-74.874s39.985-44.622,46.865-121.581S-731.9,207.008-731.9,207.008H-586V623.393C-593.432,589.87-613.716,551.244-662.437,523.115Z" transform="translate(1000 -207.008)" fill="none" stroke="#fff" stroke-width="1" opacity="0.1"/>
        <path id="Intersection_5" data-name="Intersection 5" d="M50.715,274.53c0-49.6.355-46.937,21.518-148.888S0,0,0,0H134.967V383.107C104.439,336.793,50.715,316.437,50.715,274.53Z" transform="translate(279.034 0)" opacity="0.5" fill="url(#linear-gradient)"/>
      </g>
      <circle id="Ellipse_2" data-name="Ellipse 2" cx="133" cy="133" r="133" transform="translate(99 447)" fill="#fff" opacity="0.03"/>
    </g>
  </g>
</svg>
