<svg xmlns="http://www.w3.org/2000/svg" width="746.742" height="123.281" viewBox="0 0 746.742 123.281">
  <g id="Group_23" data-name="Group 23" transform="translate(-281.758 -3148.219)">
    <path id="Intersection_4" data-name="Intersection 4" d="M613.687,336c37.025-56.1,100.044-32.1,126.111-25.11,26.881,7.2,25.059,21.83,199.937-25.028s208.871-26.93,279.049,13.587,91.238-3.7,105.035-36.888S1359,234.325,1359,234.325V296a40,40,0,0,1-40,40Z" transform="translate(-331 2935)" fill="none" stroke="#fff" stroke-width="1" opacity="0.1"/>
    <path id="Intersection_3" data-name="Intersection 3" d="M780.326,336c162.416-89.657,280.351-63.078,280.351-63.078s167.026,36.373,214.99,0,83.333-38.6,83.333-38.6V296a40,40,0,0,1-40,40Z" transform="translate(-331 2935)" fill="#fff" opacity="0.1"/>
    <path id="Intersection_2" data-name="Intersection 2" d="M630.945,336c67.1-61.33,125.692-29.962,125.692-29.962S907.305,335.552,991.8,286.766s168.78-40.8,239.441,0,99.732,5.3,99.732-24.53S1332.857,226.058,1359,214v82a40,40,0,0,1-40,40Z" transform="translate(-331 2935)" fill="none" stroke="#fff" stroke-width="1" opacity="0.15"/>
  </g>
</svg>
