<svg xmlns="http://www.w3.org/2000/svg" width="662.651" height="599.621" viewBox="0 0 662.651 599.621">
  <g id="Group_117" data-name="Group 117" transform="translate(78.651 -2131.219)">
    <g id="Group_105" data-name="Group 105" transform="translate(215 716)">
      <g id="Group_8" data-name="Group 8" transform="translate(-875 1723)" opacity="0.8">
        <rect id="Rectangle_11" data-name="Rectangle 11" width="5" height="5" rx="2" transform="translate(1098 118)" fill="#c7c7c7"/>
        <rect id="Rectangle_10" data-name="Rectangle 10" width="5" height="5" rx="2" transform="translate(1098 98)" fill="#c7c7c7"/>
        <rect id="Rectangle_9" data-name="Rectangle 9" width="5" height="5" rx="2" transform="translate(1098 78)" fill="#c7c7c7"/>
        <rect id="Rectangle_3" data-name="Rectangle 3" width="5" height="5" rx="2" transform="translate(1118 118)" fill="#c7c7c7"/>
        <rect id="Rectangle_8" data-name="Rectangle 8" width="5" height="5" rx="2" transform="translate(1138 118)" fill="#c7c7c7"/>
        <rect id="Rectangle_11-2" data-name="Rectangle 11" width="5" height="5" rx="2" transform="translate(1158 118)" fill="#c7c7c7"/>
        <rect id="Rectangle_4" data-name="Rectangle 4" width="5" height="5" rx="2" transform="translate(1118 98)" fill="#c7c7c7"/>
        <rect id="Rectangle_7" data-name="Rectangle 7" width="5" height="5" rx="2" transform="translate(1138 98)" fill="#c7c7c7"/>
        <rect id="Rectangle_10-2" data-name="Rectangle 10" width="5" height="5" rx="2" transform="translate(1158 98)" fill="#c7c7c7"/>
        <rect id="Rectangle_5" data-name="Rectangle 5" width="5" height="5" rx="2" transform="translate(1118 78)" fill="#c7c7c7"/>
        <rect id="Rectangle_6" data-name="Rectangle 6" width="5" height="5" rx="2" transform="translate(1138 78)" fill="#c7c7c7"/>
        <rect id="Rectangle_9-2" data-name="Rectangle 9" width="5" height="5" rx="2" transform="translate(1158 78)" fill="#c7c7c7"/>
        <rect id="Rectangle_3-2" data-name="Rectangle 3" width="5" height="5" rx="2" transform="translate(1118 178)" fill="#c7c7c7"/>
        <rect id="Rectangle_14" data-name="Rectangle 14" width="5" height="5" rx="2" transform="translate(1098 178)" fill="#c7c7c7"/>
        <rect id="Rectangle_8-2" data-name="Rectangle 8" width="5" height="5" rx="2" transform="translate(1138 178)" fill="#c7c7c7"/>
        <rect id="Rectangle_11-3" data-name="Rectangle 11" width="5" height="5" rx="2" transform="translate(1158 178)" fill="#c7c7c7"/>
        <rect id="Rectangle_4-2" data-name="Rectangle 4" width="5" height="5" rx="2" transform="translate(1118 158)" fill="#c7c7c7"/>
        <rect id="Rectangle_13" data-name="Rectangle 13" width="5" height="5" rx="2" transform="translate(1098 158)" fill="#c7c7c7"/>
        <rect id="Rectangle_7-2" data-name="Rectangle 7" width="5" height="5" rx="2" transform="translate(1138 158)" fill="#c7c7c7"/>
        <rect id="Rectangle_10-3" data-name="Rectangle 10" width="5" height="5" rx="2" transform="translate(1158 158)" fill="#c7c7c7"/>
        <rect id="Rectangle_5-2" data-name="Rectangle 5" width="5" height="5" rx="2" transform="translate(1118 138)" fill="#c7c7c7"/>
        <rect id="Rectangle_12" data-name="Rectangle 12" width="5" height="5" rx="2" transform="translate(1098 138)" fill="#c7c7c7"/>
        <rect id="Rectangle_6-2" data-name="Rectangle 6" width="5" height="5" rx="2" transform="translate(1138 138)" fill="#c7c7c7"/>
        <rect id="Rectangle_9-3" data-name="Rectangle 9" width="5" height="5" rx="2" transform="translate(1158 138)" fill="#c7c7c7"/>
        <rect id="Rectangle_3-3" data-name="Rectangle 3" width="5" height="5" rx="2" transform="translate(1118 238)" fill="#c7c7c7"/>
        <rect id="Rectangle_14-2" data-name="Rectangle 14" width="5" height="5" rx="2" transform="translate(1098 238)" fill="#c7c7c7"/>
        <rect id="Rectangle_8-3" data-name="Rectangle 8" width="5" height="5" rx="2" transform="translate(1138 238)" fill="#c7c7c7"/>
        <rect id="Rectangle_11-4" data-name="Rectangle 11" width="5" height="5" rx="2" transform="translate(1158 238)" fill="#c7c7c7"/>
        <rect id="Rectangle_4-3" data-name="Rectangle 4" width="5" height="5" rx="2" transform="translate(1118 218)" fill="#c7c7c7"/>
        <rect id="Rectangle_13-2" data-name="Rectangle 13" width="5" height="5" rx="2" transform="translate(1098 218)" fill="#c7c7c7"/>
        <rect id="Rectangle_7-3" data-name="Rectangle 7" width="5" height="5" rx="2" transform="translate(1138 218)" fill="#c7c7c7"/>
        <rect id="Rectangle_10-4" data-name="Rectangle 10" width="5" height="5" rx="2" transform="translate(1158 218)" fill="#c7c7c7"/>
        <rect id="Rectangle_5-3" data-name="Rectangle 5" width="5" height="5" rx="2" transform="translate(1118 198)" fill="#c7c7c7"/>
        <rect id="Rectangle_12-2" data-name="Rectangle 12" width="5" height="5" rx="2" transform="translate(1098 198)" fill="#c7c7c7"/>
        <rect id="Rectangle_6-3" data-name="Rectangle 6" width="5" height="5" rx="2" transform="translate(1138 198)" fill="#c7c7c7"/>
        <rect id="Rectangle_9-4" data-name="Rectangle 9" width="5" height="5" rx="2" transform="translate(1158 198)" fill="#c7c7c7"/>
      </g>
      <g id="Group_9" data-name="Group 9" transform="translate(-794 1723)" opacity="0.8">
        <rect id="Rectangle_11-5" data-name="Rectangle 11" width="5" height="5" rx="2" transform="translate(1098 118)" fill="#c7c7c7"/>
        <rect id="Rectangle_10-5" data-name="Rectangle 10" width="5" height="5" rx="2" transform="translate(1098 98)" fill="#c7c7c7"/>
        <rect id="Rectangle_9-5" data-name="Rectangle 9" width="5" height="5" rx="2" transform="translate(1098 78)" fill="#c7c7c7"/>
        <rect id="Rectangle_3-4" data-name="Rectangle 3" width="5" height="5" rx="2" transform="translate(1118 118)" fill="#c7c7c7"/>
        <rect id="Rectangle_8-4" data-name="Rectangle 8" width="5" height="5" rx="2" transform="translate(1138 118)" fill="#c7c7c7"/>
        <rect id="Rectangle_11-6" data-name="Rectangle 11" width="5" height="5" rx="2" transform="translate(1158 118)" fill="#c7c7c7"/>
        <rect id="Rectangle_4-4" data-name="Rectangle 4" width="5" height="5" rx="2" transform="translate(1118 98)" fill="#c7c7c7"/>
        <rect id="Rectangle_7-4" data-name="Rectangle 7" width="5" height="5" rx="2" transform="translate(1138 98)" fill="#c7c7c7"/>
        <rect id="Rectangle_10-6" data-name="Rectangle 10" width="5" height="5" rx="2" transform="translate(1158 98)" fill="#c7c7c7"/>
        <rect id="Rectangle_5-4" data-name="Rectangle 5" width="5" height="5" rx="2" transform="translate(1118 78)" fill="#c7c7c7"/>
        <rect id="Rectangle_6-4" data-name="Rectangle 6" width="5" height="5" rx="2" transform="translate(1138 78)" fill="#c7c7c7"/>
        <rect id="Rectangle_9-6" data-name="Rectangle 9" width="5" height="5" rx="2" transform="translate(1158 78)" fill="#c7c7c7"/>
        <rect id="Rectangle_3-5" data-name="Rectangle 3" width="5" height="5" rx="2" transform="translate(1118 178)" fill="#c7c7c7"/>
        <rect id="Rectangle_14-3" data-name="Rectangle 14" width="5" height="5" rx="2" transform="translate(1098 178)" fill="#c7c7c7"/>
        <rect id="Rectangle_8-5" data-name="Rectangle 8" width="5" height="5" rx="2" transform="translate(1138 178)" fill="#c7c7c7"/>
        <rect id="Rectangle_11-7" data-name="Rectangle 11" width="5" height="5" rx="2" transform="translate(1158 178)" fill="#c7c7c7"/>
        <rect id="Rectangle_4-5" data-name="Rectangle 4" width="5" height="5" rx="2" transform="translate(1118 158)" fill="#c7c7c7"/>
        <rect id="Rectangle_13-3" data-name="Rectangle 13" width="5" height="5" rx="2" transform="translate(1098 158)" fill="#c7c7c7"/>
        <rect id="Rectangle_7-5" data-name="Rectangle 7" width="5" height="5" rx="2" transform="translate(1138 158)" fill="#c7c7c7"/>
        <rect id="Rectangle_10-7" data-name="Rectangle 10" width="5" height="5" rx="2" transform="translate(1158 158)" fill="#c7c7c7"/>
        <rect id="Rectangle_5-5" data-name="Rectangle 5" width="5" height="5" rx="2" transform="translate(1118 138)" fill="#c7c7c7"/>
        <rect id="Rectangle_12-3" data-name="Rectangle 12" width="5" height="5" rx="2" transform="translate(1098 138)" fill="#c7c7c7"/>
        <rect id="Rectangle_6-5" data-name="Rectangle 6" width="5" height="5" rx="2" transform="translate(1138 138)" fill="#c7c7c7"/>
        <rect id="Rectangle_9-7" data-name="Rectangle 9" width="5" height="5" rx="2" transform="translate(1158 138)" fill="#c7c7c7"/>
        <rect id="Rectangle_3-6" data-name="Rectangle 3" width="5" height="5" rx="2" transform="translate(1118 238)" fill="#c7c7c7"/>
        <rect id="Rectangle_14-4" data-name="Rectangle 14" width="5" height="5" rx="2" transform="translate(1098 238)" fill="#c7c7c7"/>
        <rect id="Rectangle_8-6" data-name="Rectangle 8" width="5" height="5" rx="2" transform="translate(1138 238)" fill="#c7c7c7"/>
        <rect id="Rectangle_11-8" data-name="Rectangle 11" width="5" height="5" rx="2" transform="translate(1158 238)" fill="#c7c7c7"/>
        <rect id="Rectangle_4-6" data-name="Rectangle 4" width="5" height="5" rx="2" transform="translate(1118 218)" fill="#c7c7c7"/>
        <rect id="Rectangle_13-4" data-name="Rectangle 13" width="5" height="5" rx="2" transform="translate(1098 218)" fill="#c7c7c7"/>
        <rect id="Rectangle_7-6" data-name="Rectangle 7" width="5" height="5" rx="2" transform="translate(1138 218)" fill="#c7c7c7"/>
        <rect id="Rectangle_10-8" data-name="Rectangle 10" width="5" height="5" rx="2" transform="translate(1158 218)" fill="#c7c7c7"/>
        <rect id="Rectangle_5-6" data-name="Rectangle 5" width="5" height="5" rx="2" transform="translate(1118 198)" fill="#c7c7c7"/>
        <rect id="Rectangle_12-4" data-name="Rectangle 12" width="5" height="5" rx="2" transform="translate(1098 198)" fill="#c7c7c7"/>
        <rect id="Rectangle_6-6" data-name="Rectangle 6" width="5" height="5" rx="2" transform="translate(1138 198)" fill="#c7c7c7"/>
        <rect id="Rectangle_9-8" data-name="Rectangle 9" width="5" height="5" rx="2" transform="translate(1158 198)" fill="#c7c7c7"/>
      </g>
    </g>
    <rect id="Rectangle_83" data-name="Rectangle 83" width="501" height="527" rx="40" transform="matrix(0.208, 0.978, -0.978, 0.208, 436.833, 2131.219)" fill="#1e2127"/>
  </g>
</svg>
