<svg xmlns="http://www.w3.org/2000/svg" width="479.139" height="186.477" viewBox="0 0 479.139 186.477">
  <g id="Group_98" data-name="Group 98" transform="translate(-8864.323 -1763.546)">
    <path id="Path_38" data-name="Path 38" d="M9335.777,1825.685s4.855-83.112-91.182-57.1-59.205,47.106-168.373,62.236-209.266,33.5-209.266,33.5-12.38,83.2,125.781,85.656,102.8-104.73,150.4-102.537S9335.777,1825.685,9335.777,1825.685Z" transform="translate(-1.195)" fill="#e1e2e2"/>
    <path id="Path_37" data-name="Path 37" d="M8932.59,1798.945c-20.3,5.028-51.386,14.355-66.049,55.6s48.178,83.656,48.178,83.656,73.458,35.771,159.784,4.257,162.486-10.986,162.486-10.986,64.312,26.942,92.336-17.328,10.131-84.266-16.775-95.056-74.023-20.075-117.551,0-65.822,37.025-115.28,25.441-92.575-32.571-98.905-35.505S8952.892,1793.918,8932.59,1798.945Z" transform="translate(0 -17.407)" fill="#1e2127"/>
  </g>
</svg>
