<svg xmlns="http://www.w3.org/2000/svg" width="482" height="632" viewBox="0 0 482 632"><g transform="translate(-798)"><path d="M0,0H482a0,0,0,0,1,0,0V632a0,0,0,0,1,0,0H50A50,50,0,0,1,0,582V0A0,0,0,0,1,0,0Z" transform="translate(798)" fill="#3838f8"/><g opacity="0.8"><rect width="5" height="5" rx="2" transform="translate(998 118)" fill="#fff"/><rect width="5" height="5" rx="2" transform="translate(1018 118)" fill="#fff"/><rect width="5" height="5" rx="2" transform="translate(1038 118)" fill="#fff"/><rect width="5" height="5" rx="2" transform="translate(998 98)" fill="#fff"/><rect width="5" height="5" rx="2" transform="translate(1018 98)" fill="#fff"/><rect width="5" height="5" rx="2" transform="translate(1038 98)" fill="#fff"/><rect width="5" height="5" rx="2" transform="translate(998 78)" fill="#fff"/><rect width="5" height="5" rx="2" transform="translate(1018 78)" fill="#fff"/><rect width="5" height="5" rx="2" transform="translate(1038 78)" fill="#fff"/><rect width="5" height="5" rx="2" transform="translate(1058 118)" fill="#fff"/><rect width="5" height="5" rx="2" transform="translate(1078 118)" fill="#fff"/><rect width="5" height="5" rx="2" transform="translate(1058 98)" fill="#fff"/><rect width="5" height="5" rx="2" transform="translate(1078 98)" fill="#fff"/><rect width="5" height="5" rx="2" transform="translate(1058 78)" fill="#fff"/><rect width="5" height="5" rx="2" transform="translate(1078 78)" fill="#fff"/></g><g opacity="0.8"><rect width="5" height="5" rx="2" transform="translate(1098 118)" fill="#fff"/><rect width="5" height="5" rx="2" transform="translate(1098 98)" fill="#fff"/><rect width="5" height="5" rx="2" transform="translate(1098 78)" fill="#fff"/><rect width="5" height="5" rx="2" transform="translate(1118 118)" fill="#fff"/><rect width="5" height="5" rx="2" transform="translate(1138 118)" fill="#fff"/><rect width="5" height="5" rx="2" transform="translate(1158 118)" fill="#fff"/><rect width="5" height="5" rx="2" transform="translate(1118 98)" fill="#fff"/><rect width="5" height="5" rx="2" transform="translate(1138 98)" fill="#fff"/><rect width="5" height="5" rx="2" transform="translate(1158 98)" fill="#fff"/><rect width="5" height="5" rx="2" transform="translate(1118 78)" fill="#fff"/><rect width="5" height="5" rx="2" transform="translate(1138 78)" fill="#fff"/><rect width="5" height="5" rx="2" transform="translate(1158 78)" fill="#fff"/><rect width="5" height="5" rx="2" transform="translate(1118 178)" fill="#fff"/><rect width="5" height="5" rx="2" transform="translate(1098 178)" fill="#fff"/><rect width="5" height="5" rx="2" transform="translate(1138 178)" fill="#fff"/><rect width="5" height="5" rx="2" transform="translate(1158 178)" fill="#fff"/><rect width="5" height="5" rx="2" transform="translate(1118 158)" fill="#fff"/><rect width="5" height="5" rx="2" transform="translate(1098 158)" fill="#fff"/><rect width="5" height="5" rx="2" transform="translate(1138 158)" fill="#fff"/><rect width="5" height="5" rx="2" transform="translate(1158 158)" fill="#fff"/><rect width="5" height="5" rx="2" transform="translate(1118 138)" fill="#fff"/><rect width="5" height="5" rx="2" transform="translate(1098 138)" fill="#fff"/><rect width="5" height="5" rx="2" transform="translate(1138 138)" fill="#fff"/><rect width="5" height="5" rx="2" transform="translate(1158 138)" fill="#fff"/><rect width="5" height="5" rx="2" transform="translate(1118 238)" fill="#fff"/><rect width="5" height="5" rx="2" transform="translate(1098 238)" fill="#fff"/><rect width="5" height="5" rx="2" transform="translate(1138 238)" fill="#fff"/><rect width="5" height="5" rx="2" transform="translate(1158 238)" fill="#fff"/><rect width="5" height="5" rx="2" transform="translate(1118 218)" fill="#fff"/><rect width="5" height="5" rx="2" transform="translate(1098 218)" fill="#fff"/><rect width="5" height="5" rx="2" transform="translate(1138 218)" fill="#fff"/><rect width="5" height="5" rx="2" transform="translate(1158 218)" fill="#fff"/><rect width="5" height="5" rx="2" transform="translate(1118 198)" fill="#fff"/><rect width="5" height="5" rx="2" transform="translate(1098 198)" fill="#fff"/><rect width="5" height="5" rx="2" transform="translate(1138 198)" fill="#fff"/><rect width="5" height="5" rx="2" transform="translate(1158 198)" fill="#fff"/></g><path d="M1130,817a54,54,0,0,1,54-54v54Z" transform="translate(96 -185)" fill="#fff" opacity="0.1"/><path d="M1099.749,487.805c0-49.6.355-46.937,21.518-148.888s-72.233-125.642-72.233-125.642H1184V596.383C1153.473,550.069,1099.749,529.713,1099.749,487.805Z" transform="translate(96 -213.275)" fill="#fff" opacity="0.1"/><circle cx="133" cy="133" r="133" transform="translate(897 343)" fill="#fff" opacity="0.1"/></g></svg>