<svg xmlns="http://www.w3.org/2000/svg" width="50.241" height="57.875" viewBox="0 0 50.241 57.875">
  <g id="bitbucket" transform="translate(-0.012)">
    <path id="Path_30" data-name="Path 30" d="M25.132,0h0C11.34,0,.012,3.694.012,8.373.012,9.6,2.967,27.091,4.2,33.986c.493,3.2,8.62,7.635,20.934,7.635h0c12.314,0,20.195-4.433,20.934-7.635C47.3,27.091,50.252,9.6,50.252,8.373,50.006,3.694,38.923,0,25.132,0Zm0,35.956a7.881,7.881,0,1,1,7.881-7.881,7.935,7.935,0,0,1-7.881,7.881Zm0-25.12c-8.866,0-16.008-1.478-16.008-3.448S16.266,3.94,25.132,3.94,41.14,5.418,41.14,7.388,34,10.836,25.132,10.836Z" fill="#205081"/>
    <path id="Path_31" data-name="Path 31" d="M69.332,207.04a1.079,1.079,0,0,0-.739.246s-6.157,4.926-17.239,4.926-17.239-4.926-17.239-4.926a2.481,2.481,0,0,0-.739-.246.9.9,0,0,0-.985.985v.246c.985,5.172,1.724,8.866,1.724,9.359.739,3.694,8.127,6.649,16.993,6.649h0c8.866,0,16.254-2.955,16.993-6.649,0-.493.739-4.187,1.724-9.359v-.246c.246-.493,0-.985-.493-.985Z" transform="translate(-26.023 -166.404)" fill="#205081"/>
    <circle id="Ellipse_5" data-name="Ellipse 5" cx="3.94" cy="3.94" r="3.94" transform="translate(21.191 23.889)" fill="#205081"/>
  </g>
</svg>
