<svg xmlns="http://www.w3.org/2000/svg" width="56.509" height="58" viewBox="0 0 56.509 58">
  <g id="github" transform="translate(-51.6 60)">
    <path id="Path_22" data-name="Path 22" d="M50.854,10C35.248,10,22.6,22.985,22.6,39S35.253,68,50.854,68,79.109,55.015,79.109,39,66.461,10,50.854,10Zm8.481,55.047c-1.361.272-1.841-.586-1.841-1.32,0-.9.03-3.859.03-7.528a6.671,6.671,0,0,0-1.817-5.09c5.966-.675,12.221-3,12.221-13.541A10.748,10.748,0,0,0,65.177,30.2a10.091,10.091,0,0,0-.266-7.262s-2.243-.74-7.357,2.817a25.08,25.08,0,0,0-6.7-.929,24.779,24.779,0,0,0-6.7.929c-5.113-3.551-7.362-2.817-7.362-2.817a10.077,10.077,0,0,0-.26,7.262,10.765,10.765,0,0,0-2.752,7.368c0,10.517,6.25,12.872,12.192,13.565a5.922,5.922,0,0,0-1.7,3.669c-1.527.7-5.4,1.912-7.789-2.284a5.645,5.645,0,0,0-4.1-2.829s-2.616-.036-.183,1.669c0,0,1.758.84,2.971,4.013,0,0,1.574,5.338,9.02,3.681.012,2.29.036,4.019.036,4.67,0,.728-.485,1.574-1.829,1.32A27.387,27.387,0,0,1,24.091,39C24.086,23.849,36.07,11.562,50.854,11.562S77.623,23.849,77.623,39.012A27.4,27.4,0,0,1,59.335,65.047Z" transform="translate(29 -70)"/>
  </g>
</svg>
