<svg xmlns="http://www.w3.org/2000/svg" width="62.589" height="57.654" viewBox="0 0 62.589 57.654">
  <g id="gitlab" transform="translate(-0.164 -0.421)">
    <path id="Path_23" data-name="Path 23" d="M92.495,126.573,104.019,91.1H80.97l11.524,35.468Z" transform="translate(-61.036 -68.498)" fill="#e24329"/>
    <path id="Path_24" data-name="Path 24" d="M42.631,126.572,31.107,91.1H14.956Z" transform="translate(-11.173 -68.497)" fill="#fc6d26"/>
    <path id="Path_25" data-name="Path 25" d="M3.783,91.1l-3.5,10.779a2.386,2.386,0,0,0,.867,2.667l30.311,22.022L3.783,91.1Z" transform="translate(0 -68.497)" fill="#fca326"/>
    <path id="Path_26" data-name="Path 26" d="M14.956,22.607H31.107L24.166,1.245a1.193,1.193,0,0,0-2.269,0L14.956,22.607Z" transform="translate(-11.173 0)" fill="#e24329"/>
    <path id="Path_27" data-name="Path 27" d="M128.074,126.572,139.6,91.1H155.75l-27.676,35.468Z" transform="translate(-96.616 -68.497)" fill="#fc6d26"/>
    <path id="Path_28" data-name="Path 28" d="M155.75,91.1l3.5,10.779a2.386,2.386,0,0,1-.867,2.667l-30.31,22.022L155.75,91.1Z" transform="translate(-96.617 -68.497)" fill="#fca326"/>
    <path id="Path_29" data-name="Path 29" d="M191.33,22.607H175.179L182.12,1.245a1.193,1.193,0,0,1,2.269,0Z" transform="translate(-132.196 0)" fill="#e24329"/>
  </g>
</svg>
