<svg xmlns="http://www.w3.org/2000/svg" width="65" height="165" viewBox="0 0 65 165">
  <g id="Group_6" data-name="Group 6" transform="translate(-1098 -78)" opacity="0.8">
    <rect id="Rectangle_11" data-name="Rectangle 11" width="5" height="5" rx="2" transform="translate(1098 118)" fill="#c7c7c7"/>
    <rect id="Rectangle_10" data-name="Rectangle 10" width="5" height="5" rx="2" transform="translate(1098 98)" fill="#c7c7c7"/>
    <rect id="Rectangle_9" data-name="Rectangle 9" width="5" height="5" rx="2" transform="translate(1098 78)" fill="#c7c7c7"/>
    <rect id="Rectangle_3" data-name="Rectangle 3" width="5" height="5" rx="2" transform="translate(1118 118)" fill="#c7c7c7"/>
    <rect id="Rectangle_8" data-name="Rectangle 8" width="5" height="5" rx="2" transform="translate(1138 118)" fill="#c7c7c7"/>
    <rect id="Rectangle_11-2" data-name="Rectangle 11" width="5" height="5" rx="2" transform="translate(1158 118)" fill="#c7c7c7"/>
    <rect id="Rectangle_4" data-name="Rectangle 4" width="5" height="5" rx="2" transform="translate(1118 98)" fill="#c7c7c7"/>
    <rect id="Rectangle_7" data-name="Rectangle 7" width="5" height="5" rx="2" transform="translate(1138 98)" fill="#c7c7c7"/>
    <rect id="Rectangle_10-2" data-name="Rectangle 10" width="5" height="5" rx="2" transform="translate(1158 98)" fill="#c7c7c7"/>
    <rect id="Rectangle_5" data-name="Rectangle 5" width="5" height="5" rx="2" transform="translate(1118 78)" fill="#c7c7c7"/>
    <rect id="Rectangle_6" data-name="Rectangle 6" width="5" height="5" rx="2" transform="translate(1138 78)" fill="#c7c7c7"/>
    <rect id="Rectangle_9-2" data-name="Rectangle 9" width="5" height="5" rx="2" transform="translate(1158 78)" fill="#c7c7c7"/>
    <rect id="Rectangle_3-2" data-name="Rectangle 3" width="5" height="5" rx="2" transform="translate(1118 178)" fill="#c7c7c7"/>
    <rect id="Rectangle_14" data-name="Rectangle 14" width="5" height="5" rx="2" transform="translate(1098 178)" fill="#c7c7c7"/>
    <rect id="Rectangle_8-2" data-name="Rectangle 8" width="5" height="5" rx="2" transform="translate(1138 178)" fill="#c7c7c7"/>
    <rect id="Rectangle_11-3" data-name="Rectangle 11" width="5" height="5" rx="2" transform="translate(1158 178)" fill="#c7c7c7"/>
    <rect id="Rectangle_4-2" data-name="Rectangle 4" width="5" height="5" rx="2" transform="translate(1118 158)" fill="#c7c7c7"/>
    <rect id="Rectangle_13" data-name="Rectangle 13" width="5" height="5" rx="2" transform="translate(1098 158)" fill="#c7c7c7"/>
    <rect id="Rectangle_7-2" data-name="Rectangle 7" width="5" height="5" rx="2" transform="translate(1138 158)" fill="#c7c7c7"/>
    <rect id="Rectangle_10-3" data-name="Rectangle 10" width="5" height="5" rx="2" transform="translate(1158 158)" fill="#c7c7c7"/>
    <rect id="Rectangle_5-2" data-name="Rectangle 5" width="5" height="5" rx="2" transform="translate(1118 138)" fill="#c7c7c7"/>
    <rect id="Rectangle_12" data-name="Rectangle 12" width="5" height="5" rx="2" transform="translate(1098 138)" fill="#c7c7c7"/>
    <rect id="Rectangle_6-2" data-name="Rectangle 6" width="5" height="5" rx="2" transform="translate(1138 138)" fill="#c7c7c7"/>
    <rect id="Rectangle_9-3" data-name="Rectangle 9" width="5" height="5" rx="2" transform="translate(1158 138)" fill="#c7c7c7"/>
    <rect id="Rectangle_3-3" data-name="Rectangle 3" width="5" height="5" rx="2" transform="translate(1118 238)" fill="#c7c7c7"/>
    <rect id="Rectangle_14-2" data-name="Rectangle 14" width="5" height="5" rx="2" transform="translate(1098 238)" fill="#c7c7c7"/>
    <rect id="Rectangle_8-3" data-name="Rectangle 8" width="5" height="5" rx="2" transform="translate(1138 238)" fill="#c7c7c7"/>
    <rect id="Rectangle_11-4" data-name="Rectangle 11" width="5" height="5" rx="2" transform="translate(1158 238)" fill="#c7c7c7"/>
    <rect id="Rectangle_4-3" data-name="Rectangle 4" width="5" height="5" rx="2" transform="translate(1118 218)" fill="#c7c7c7"/>
    <rect id="Rectangle_13-2" data-name="Rectangle 13" width="5" height="5" rx="2" transform="translate(1098 218)" fill="#c7c7c7"/>
    <rect id="Rectangle_7-3" data-name="Rectangle 7" width="5" height="5" rx="2" transform="translate(1138 218)" fill="#c7c7c7"/>
    <rect id="Rectangle_10-4" data-name="Rectangle 10" width="5" height="5" rx="2" transform="translate(1158 218)" fill="#c7c7c7"/>
    <rect id="Rectangle_5-3" data-name="Rectangle 5" width="5" height="5" rx="2" transform="translate(1118 198)" fill="#c7c7c7"/>
    <rect id="Rectangle_12-2" data-name="Rectangle 12" width="5" height="5" rx="2" transform="translate(1098 198)" fill="#c7c7c7"/>
    <rect id="Rectangle_6-3" data-name="Rectangle 6" width="5" height="5" rx="2" transform="translate(1138 198)" fill="#c7c7c7"/>
    <rect id="Rectangle_9-4" data-name="Rectangle 9" width="5" height="5" rx="2" transform="translate(1158 198)" fill="#c7c7c7"/>
  </g>
</svg>
