<svg xmlns="http://www.w3.org/2000/svg" width="35.516" height="31.079" viewBox="0 0 35.516 31.079">
  <path id="Icon_awesome-react" data-name="Icon awesome-react" d="M29.01,12.322q-.562-.187-1.124-.354c.062-.257.118-.513.173-.77.853-4.134.291-7.457-1.6-8.553-1.824-1.047-4.8.042-7.811,2.664-.3.257-.59.527-.867.8-.187-.18-.382-.361-.576-.534-3.156-2.8-6.319-3.982-8.213-2.879-1.817,1.054-2.359,4.183-1.6,8.1.076.388.16.77.257,1.158-.444.125-.881.264-1.29.409C2.657,13.64,0,15.666,0,17.761c0,2.164,2.83,4.336,6.68,5.654.312.1.624.208.943.3-.1.416-.194.825-.277,1.249-.728,3.85-.16,6.9,1.658,7.95,1.873,1.082,5.022-.028,8.088-2.712.243-.215.486-.437.728-.673.305.3.624.583.943.86,2.969,2.553,5.9,3.586,7.714,2.539,1.873-1.082,2.483-4.363,1.693-8.359q-.094-.458-.208-.936c.222-.062.437-.132.652-.2,4-1.325,6.9-3.468,6.9-5.667,0-2.1-2.733-4.141-6.507-5.438ZM19.624,6.433c2.58-2.248,4.988-3.129,6.084-2.5,1.172.673,1.623,3.392.888,6.965-.049.236-.1.465-.16.694a35.511,35.511,0,0,0-4.668-.735,35.048,35.048,0,0,0-2.955-3.683c.271-.257.534-.5.812-.742ZM11.6,21.361c.354.6.714,1.207,1.1,1.8a31.412,31.412,0,0,1-3.219-.52,32.4,32.4,0,0,1,1.131-3.087c.319.61.645,1.214.992,1.811ZM9.5,13.016c1-.222,2.06-.4,3.163-.541-.368.576-.728,1.165-1.068,1.762s-.673,1.193-.985,1.8C10.169,15.007,9.8,13.994,9.5,13.016ZM11.4,17.8c.458-.957.957-1.894,1.484-2.816s1.1-1.817,1.693-2.7c1.041-.076,2.1-.118,3.184-.118s2.15.042,3.184.118q.884,1.311,1.686,2.685t1.505,2.8q-.7,1.436-1.5,2.83c-.527.923-1.089,1.817-1.679,2.705-1.034.076-2.109.111-3.2.111s-2.143-.035-3.163-.1Q13.69,22,12.889,20.612c-.534-.923-1.027-1.859-1.491-2.816Zm12.528,3.552c.354-.61.687-1.228,1.013-1.852a32.2,32.2,0,0,1,1.172,3.073,30.469,30.469,0,0,1-3.26.555C23.224,22.54,23.578,21.944,23.925,21.347Zm1-5.307c-.326-.61-.659-1.221-1.006-1.817s-.694-1.172-1.061-1.748a31.922,31.922,0,0,1,3.184.555A30.7,30.7,0,0,1,24.924,16.04Zm-7.152-7.8a30.46,30.46,0,0,1,2.053,2.483c-1.373-.062-2.754-.062-4.127,0C16.378,9.825,17.078,8.993,17.772,8.236ZM9.725,3.984c1.165-.68,3.753.291,6.479,2.705.173.153.347.319.527.486a35.243,35.243,0,0,0-2.976,3.683,36.566,36.566,0,0,0-4.662.721c-.09-.354-.166-.714-.243-1.075-.652-3.357-.222-5.889.874-6.521ZM8.026,22.27c-.291-.083-.576-.173-.86-.271A14.148,14.148,0,0,1,2.8,19.835a3.113,3.113,0,0,1-1.3-2.074c0-1.269,2.192-2.893,5.355-4,.4-.139.8-.264,1.2-.382a36.886,36.886,0,0,0,1.7,4.412A37.918,37.918,0,0,0,8.026,22.27Zm8.088,6.8A12.7,12.7,0,0,1,12.2,31.516a3.07,3.07,0,0,1-2.449.09c-1.1-.638-1.561-3.087-.936-6.382.076-.388.16-.777.257-1.158a34.7,34.7,0,0,0,4.71.68,36.607,36.607,0,0,0,3,3.7C16.558,28.665,16.336,28.874,16.114,29.068Zm1.7-1.686c-.708-.763-1.415-1.609-2.1-2.518.666.028,1.353.042,2.046.042.714,0,1.415-.014,2.109-.049a29.915,29.915,0,0,1-2.053,2.525Zm9.066,2.081a3.083,3.083,0,0,1-1.145,2.171c-1.1.638-3.455-.194-5.993-2.372-.291-.25-.583-.52-.881-.8a34.315,34.315,0,0,0,2.927-3.718,34.2,34.2,0,0,0,4.731-.728c.069.284.132.569.187.846A12.645,12.645,0,0,1,26.88,29.463Zm1.263-7.457c-.194.062-.388.125-.59.18a35.24,35.24,0,0,0-1.769-4.426,35.063,35.063,0,0,0,1.7-4.363c.361.1.708.215,1.041.326,3.233,1.11,5.5,2.761,5.5,4.023,0,1.36-2.421,3.115-5.882,4.259ZM17.758,20.966a3.177,3.177,0,1,0-3.177-3.177A3.177,3.177,0,0,0,17.758,20.966Z" transform="translate(0 -2.251)" fill="#06dbfb"/>
</svg>
