<svg id="Icon_ionic-logo-android" data-name="Icon ionic-logo-android" xmlns="http://www.w3.org/2000/svg" width="28.765" height="31.384" viewBox="0 0 28.765 31.384">
  <g id="Group_99" data-name="Group 99" transform="translate(0 9.156)">
    <path id="Path_41" data-name="Path 41" d="M10.125,19.743v7.322a1.062,1.062,0,0,0,.932,1.144h2.337v4.249a1.961,1.961,0,0,0,3.922,0V28.209h4v4.249a1.953,1.953,0,0,0,.719,1.52,1.826,1.826,0,0,0,1.2.441h.041a1.957,1.957,0,0,0,1.961-1.961V28.209H27.5a1.053,1.053,0,0,0,.932-1.136V13.5h-18.3Z" transform="translate(-4.895 -12.193)" fill="#1e2127"/>
    <path id="Path_42" data-name="Path 42" d="M28.961,12.375A1.957,1.957,0,0,0,27,14.336v7.845a1.961,1.961,0,1,0,3.922,0V14.336A1.957,1.957,0,0,0,28.961,12.375Z" transform="translate(-2.158 -12.375)" fill="#1e2127"/>
    <path id="Path_43" data-name="Path 43" d="M7.586,12.375a1.957,1.957,0,0,0-1.961,1.961v7.845a1.961,1.961,0,1,0,3.922,0V14.336A1.957,1.957,0,0,0,7.586,12.375Z" transform="translate(-5.625 -12.375)" fill="#1e2127"/>
  </g>
  <path id="Path_44" data-name="Path 44" d="M23.788,6.552,25.3,4.762c.033-.041-.016-.131-.106-.2s-.2-.082-.221-.033L23.4,6.388a11.1,11.1,0,0,0-4.135-.719,11.2,11.2,0,0,0-4.151.695l-1.553-1.83c-.033-.041-.131-.033-.221.033s-.139.147-.106.2l1.5,1.765c-3.939,1.708-4.527,5.9-4.609,7.126H28.4C28.324,12.427,27.743,8.292,23.788,6.552Zm-8.531,4.07a1.087,1.087,0,1,1,1.1-1.087A1.1,1.1,0,0,1,15.257,10.621Zm8.041,0a1.087,1.087,0,1,1,1.1-1.087A1.1,1.1,0,0,1,23.3,10.621Z" transform="translate(-4.895 -4.497)" fill="#1e2127"/>
</svg>
