<svg id="invision" xmlns="http://www.w3.org/2000/svg" width="55.378" height="55.378" viewBox="0 0 55.378 55.378">
  <path id="Path_13" data-name="Path 13" d="M50.357,0H5.02A5.02,5.02,0,0,0,0,5.02V50.357a5.02,5.02,0,0,0,5.02,5.02H50.357a5.02,5.02,0,0,0,5.02-5.02V5.02A5.02,5.02,0,0,0,50.357,0" fill="#dc395f"/>
  <path id="Path_14" data-name="Path 14" d="M55.1,56.394a3.334,3.334,0,1,0-3.383-3.334A3.344,3.344,0,0,0,55.1,56.394M48.083,74.245a11.45,11.45,0,0,0-.3,2.5c0,2.936,1.592,4.884,4.975,4.884,2.806,0,5.08-1.666,6.718-4.356l-1,4.013h5.571l3.184-12.771c.8-3.234,2.338-4.912,4.677-4.912a2.784,2.784,0,0,1,2.985,3.035,5.959,5.959,0,0,1-.249,1.791L73,74.3a8.824,8.824,0,0,0-.348,2.487c0,2.787,1.641,4.825,5.074,4.825,2.935,0,5.273-1.89,6.567-6.417l-2.189-.845c-1.095,3.033-2.04,3.581-2.786,3.581s-1.144-.5-1.144-1.492a6.6,6.6,0,0,1,.249-1.543l1.592-5.719a12.613,12.613,0,0,0,.547-3.628c0-4.278-2.587-6.511-5.721-6.511-2.935,0-5.92,2.648-7.412,5.434l1.094-5H60.02L58.825,63.88h3.98l-2.451,9.812c-1.925,4.278-5.46,4.348-5.9,4.248-.729-.164-1.195-.441-1.195-1.388a9.381,9.381,0,0,1,.348-2.277l3.731-14.8H47.884L46.69,63.88h3.93L48.083,74.245" transform="translate(-36.59 -38.971)" fill="#fff"/>
</svg>
