<svg id="l_Zeplin" xmlns="http://www.w3.org/2000/svg" width="69.094" height="55.23" viewBox="0 0 69.094 55.23">
  <path id="Path_5" data-name="Path 5" d="M9.726,33.084,6.112,34.4,5.918,45.157,18.43,40.587c-4.292-1.442-7.426-3.978-8.7-7.5" transform="translate(0.923 4.995)" fill="#fdbd39" fill-rule="evenodd"/>
  <path id="Path_6" data-name="Path 6" d="M12.518,23.208-.023,27.789,7.012,35.9l3.615-1.32c-1.274-3.514-.488-7.487,1.892-11.373" transform="translate(0.023 3.498)" fill="#f69833" fill-rule="evenodd"/>
  <path id="Path_7" data-name="Path 7" d="M32.3,10.145c-15.97,5.834-26.266,17.873-23,26.889L67.137,15.907C63.868,6.89,48.271,4.311,32.3,10.145" transform="translate(1.345 1.046)" fill="#fecf33" fill-rule="evenodd"/>
  <path id="Path_8" data-name="Path 8" d="M44.061,41.627c15.97-5.834,26.285-17.819,23-26.889L9.225,35.865c3.289,9.07,18.866,11.6,34.836,5.762" transform="translate(1.425 2.215)" fill="#ee6723" fill-rule="evenodd"/>
  <path id="Path_9" data-name="Path 9" d="M67.058,14.738,9.225,35.865c1.132,3.123,5.451,4.661,11.51,4.661,5.907,0,13.469-1.461,21.353-4.341,15.97-5.834,27.206-15.28,24.97-21.447" transform="translate(1.425 2.215)" fill="#f69833" fill-rule="evenodd"/>
  <path id="Path_10" data-name="Path 10" d="M55.585,10.69c-5.907,0-13.469,1.461-21.353,4.341-15.97,5.834-27.206,15.28-24.97,21.447L67.1,15.351c-1.132-3.123-5.451-4.661-11.51-4.661" transform="translate(1.387 1.601)" fill="#fdbd39" fill-rule="evenodd"/>
  <path id="Path_11" data-name="Path 11" d="M50.812,50.136h0c-1.7,0-4.212-1.537-7.461-4.568a96.375,96.375,0,0,1-12.4-14.79,96.556,96.556,0,0,1-9.606-16.753C19.119,8.737,18.8,5.486,20.4,4.361a2.14,2.14,0,0,1,1.257-.371c1.3,0,3.837.969,8.526,5.585l.1.1-.014.143c-.032.332-.062.666-.088.995l-.052.652L29.672,11c-5.052-5.09-7.276-5.639-8-5.639a.839.839,0,0,0-.487.124c-.694.488-.739,2.876,1.419,8a95.156,95.156,0,0,0,9.466,16.5,94.985,94.985,0,0,0,12.21,14.572c4.071,3.8,5.906,4.208,6.506,4.208a.857.857,0,0,0,.5-.132c.732-.514.733-3.073-1.673-8.59l-.11-.253.242-.132c.242-.132.476-.263.7-.387l.29-.165.134.306c1.706,3.909,3.3,8.878,1.21,10.348A2.151,2.151,0,0,1,50.812,50.136Zm0-.6h0v0Z" transform="translate(2.967 0.586)" fill="#ee6723" fill-rule="evenodd"/>
  <path id="Path_12" data-name="Path 12" d="M41.6,43.693l-.024.3c-.4,5-1.467,11-4.239,11.245-.056,0-.114.008-.171.008-1.883,0-3.664-2.7-5.295-8.019A96.771,96.771,0,0,1,28.5,28.2a96.809,96.809,0,0,1,.027-19.329c.706-5.7,2.051-8.671,4-8.842.058-.005.117-.008.176-.008,1.366,0,3.425,1.547,5.532,8.751l-1.376.266a28.153,28.153,0,0,0-2.232-5.711c-.7-1.245-1.389-1.93-1.928-1.93l-.053,0c-.843.074-2.072,2.12-2.757,7.642a95.427,95.427,0,0,0-.022,19.04,95.4,95.4,0,0,0,3.315,18.747A25.771,25.771,0,0,0,35.331,52.1c.673,1.142,1.324,1.771,1.833,1.771l.052,0c.807-.071,2.328-2.2,2.968-9.69l1.414-.485" transform="translate(4.275 -0.016)" fill="#ee6723" fill-rule="evenodd"/>
</svg>
