<svg xmlns="http://www.w3.org/2000/svg" width="85.798" height="65" viewBox="0 0 85.798 65">
  <g id="nuxt" transform="translate(-0.369)">
    <path id="Path_19" data-name="Path 19" d="M26.763,62.848l-.215-.215a5.46,5.46,0,0,1-.43-2.583H5.67L36.233,5.811l12.7,23.03,4.089-3.013L40.323,2.8a5.323,5.323,0,0,0-4.3-2.8c-1.076,0-2.8.43-4.089,2.8L1.15,57.682c-.215.43-1.507,3.013-.215,5.166C1.366,63.924,2.657,65,5.455,65H31.283C28.485,65,27.193,63.924,26.763,62.848Z" transform="translate(0)" fill="#00c58e" fill-rule="evenodd"/>
    <path id="Path_20" data-name="Path 20" d="M262.374,96.351,237.623,51.8c-.43-.43-1.722-2.8-4.3-2.8-1.076,0-2.583.43-4.089,2.8L226,56.964V67.295l7.318-12.7L257.854,98.5H248.6a4.3,4.3,0,0,1-.43,2.583v.215c-1.291,2.152-4.089,2.152-4.52,2.152h14.636c.43,0,3.228,0,4.52-2.152A5.226,5.226,0,0,0,262.374,96.351Z" transform="translate(-177.068 -38.454)" fill="#108775" fill-rule="evenodd"/>
    <path id="Path_21" data-name="Path 21" d="M164.618,130.338v-.215l.215-.43a3.721,3.721,0,0,0,.215-2.152l-.861-2.368L144.817,91.166,142.019,86H141.8l-2.8,5.166-19.586,34.007-.646,2.368a4.52,4.52,0,0,0,.43,2.8c.646,1.076,1.937,2.152,4.52,2.152h36.159C160.529,132.49,163.327,132.49,164.618,130.338ZM141.8,96.331l17.864,31.209H124.155Z" transform="translate(-92.872 -67.49)" fill="#2f495e"/>
  </g>
</svg>
