<svg xmlns="http://www.w3.org/2000/svg" width="904.624" height="1067.084" viewBox="0 0 904.624 1067.084">
  <g id="Group_106" data-name="Group 106" transform="translate(-375.376 0)">
    <path id="Intersection_12" data-name="Intersection 12" d="M-1791.491,971.528c-28.929-112.671-90.975-145.7-269.783-125.958s-267.691-25.633-161.534-191.509S-2246.685,421.8-2347.167,416.7s-150.612-2.843-142.728-85.4c4.432-46.413-18.264-71.92-38.988-85.36H-1685.5V1311.483C-1834.829,1191.935-1763.4,1080.934-1791.491,971.528Z" transform="translate(2965 -245.44)" fill="none" stroke="#1e2127" stroke-width="1" opacity="0.08"/>
    <path id="Intersection_11" data-name="Intersection 11" d="M-1825.3,976.892c-7.761-139.927-265.412-124.143-265.412-124.143s-177.937-19.377-145.7-159.3-41.72-225.477-144.248-247.617-82.68-76.537-120.07-121.3c-28.979-34.694-71.282-42.452-88.849-44.186H-1685.5v973.213C-1749.345,1185.626-1819.312,1084.793-1825.3,976.892Z" transform="translate(2965 -279.841)" fill="none" stroke="#1e2127" stroke-width="1" opacity="0.1"/>
  </g>
</svg>
