<svg xmlns="http://www.w3.org/2000/svg" width="23.078" height="23.078" viewBox="0 0 23.078 23.078">
  <path id="Icon_awesome-whatsapp" data-name="Icon awesome-whatsapp" d="M19.622,5.6a11.44,11.44,0,0,0-18,13.8L0,25.328l6.063-1.592a11.4,11.4,0,0,0,5.466,1.391h.005A11.546,11.546,0,0,0,23.078,13.691,11.481,11.481,0,0,0,19.622,5.6ZM11.534,23.2a9.488,9.488,0,0,1-4.842-1.324l-.345-.206-3.6.943.958-3.508-.227-.361a9.524,9.524,0,1,1,17.664-5.053A9.611,9.611,0,0,1,11.534,23.2Zm5.213-7.119c-.283-.144-1.69-.835-1.952-.927s-.453-.144-.644.144-.737.927-.907,1.123-.335.216-.618.072a7.778,7.778,0,0,1-3.889-3.4c-.294-.5.294-.469.84-1.561a.53.53,0,0,0-.026-.5c-.072-.144-.644-1.551-.881-2.122-.232-.556-.469-.479-.644-.489s-.355-.01-.546-.01a1.059,1.059,0,0,0-.762.355,3.211,3.211,0,0,0-1,2.385,5.6,5.6,0,0,0,1.164,2.957,12.769,12.769,0,0,0,4.883,4.317c1.813.783,2.524.85,3.431.716a2.927,2.927,0,0,0,1.927-1.36,2.39,2.39,0,0,0,.165-1.36C17.221,16.293,17.03,16.221,16.747,16.081Z" transform="translate(0 -2.25)" fill="#35b259"/>
</svg>
